<?xml version="1.0" encoding="UTF-8" standalone="no"?>
<!DOCTYPE svg PUBLIC "-//W3C//DTD SVG 1.1//EN"
 "http://www.w3.org/Graphics/SVG/1.1/DTD/svg11.dtd">
<!-- Generated by graphviz version 2.43.0 (0)
 -->
<!-- Title: component_architecture Pages: 1 -->
<svg width="903pt" height="520pt"
 viewBox="0.00 0.00 902.50 520.00" xmlns="http://www.w3.org/2000/svg" xmlns:xlink="http://www.w3.org/1999/xlink">
<g id="graph0" class="graph" transform="scale(1 1) rotate(0) translate(4 516)">
<title>component_architecture</title>
<polygon fill="#0d1117" stroke="transparent" points="-4,4 -4,-516 898.5,-516 898.5,4 -4,4"/>
<text text-anchor="middle" x="447.25" y="-492" font-family="Helvetica,sans-Serif" font-size="20.00" fill="#e6edf3">Level 2a &#45;&#45; Major components inside the Hermes process, for one turn</text>
<!-- cli -->
<g id="node1" class="node">
<title>cli</title>
<path fill="#0d3a6b" stroke="#58a6ff" stroke-width="2" d="M541.5,-482C541.5,-482 300.5,-482 300.5,-482 294.5,-482 288.5,-476 288.5,-470 288.5,-470 288.5,-423 288.5,-423 288.5,-417 294.5,-411 300.5,-411 300.5,-411 541.5,-411 541.5,-411 547.5,-411 553.5,-417 553.5,-423 553.5,-423 553.5,-470 553.5,-470 553.5,-476 547.5,-482 541.5,-482"/>
<text text-anchor="middle" x="421" y="-457.8" font-family="Helvetica,sans-Serif" font-size="14.00" fill="#e6edf3">cli.py</text>
<text text-anchor="middle" x="421" y="-442.8" font-family="Helvetica,sans-Serif" font-size="14.00" fill="#e6edf3">HermesCLI: process_command(),</text>
<text text-anchor="middle" x="421" y="-427.8" font-family="Helvetica,sans-Serif" font-size="14.00" fill="#e6edf3">chat(), _run_quiet_single_query()</text>
</g>
<!-- turn_facade -->
<g id="node2" class="node">
<title>turn_facade</title>
<path fill="#13294d" stroke="#58a6ff" stroke-width="3" d="M265,-330C265,-330 45,-330 45,-330 39,-330 33,-324 33,-318 33,-318 33,-271 33,-271 33,-265 39,-259 45,-259 45,-259 265,-259 265,-259 271,-259 277,-265 277,-271 277,-271 277,-318 277,-318 277,-324 271,-330 265,-330"/>
<text text-anchor="middle" x="155" y="-305.8" font-family="Helvetica,sans-Serif" font-size="14.00" fill="#e6edf3">agent/turn_facade.py</text>
<text text-anchor="middle" x="155" y="-290.8" font-family="Helvetica,sans-Serif" font-size="14.00" fill="#e6edf3">run_conversation() &#45;&#45; the ONE</text>
<text text-anchor="middle" x="155" y="-275.8" font-family="Helvetica,sans-Serif" font-size="14.00" fill="#e6edf3">entry point for every live turn</text>
</g>
<!-- cli&#45;&gt;turn_facade -->
<g id="edge1" class="edge">
<title>cli&#45;&gt;turn_facade</title>
<path fill="none" stroke="#8b949e" stroke-width="1.6" d="M359.64,-410.9C319.28,-388.14 266.38,-358.31 224.47,-334.68"/>
<polygon fill="#8b949e" stroke="#8b949e" stroke-width="1.6" points="225.9,-331.86 216.51,-330.19 222.8,-337.35 225.9,-331.86"/>
</g>
<!-- goals -->
<g id="node7" class="node">
<title>goals</title>
<path fill="#2e1a4d" stroke="#bc8cff" stroke-width="3" d="M813.5,-330C813.5,-330 562.5,-330 562.5,-330 556.5,-330 550.5,-324 550.5,-318 550.5,-318 550.5,-271 550.5,-271 550.5,-265 556.5,-259 562.5,-259 562.5,-259 813.5,-259 813.5,-259 819.5,-259 825.5,-265 825.5,-271 825.5,-271 825.5,-318 825.5,-318 825.5,-324 819.5,-330 813.5,-330"/>
<text text-anchor="middle" x="688" y="-305.8" font-family="Helvetica,sans-Serif" font-size="14.00" fill="#e6edf3">hermes_cli/goals.py</text>
<text text-anchor="middle" x="688" y="-290.8" font-family="Helvetica,sans-Serif" font-size="14.00" fill="#e6edf3">GoalManager, GoalState,</text>
<text text-anchor="middle" x="688" y="-275.8" font-family="Helvetica,sans-Serif" font-size="14.00" fill="#e6edf3">judge_goal(), evaluate_after_turn()</text>
</g>
<!-- cli&#45;&gt;goals -->
<g id="edge8" class="edge">
<title>cli&#45;&gt;goals</title>
<path fill="none" stroke="#bc8cff" stroke-width="2" d="M482.59,-410.9C523.1,-388.14 576.2,-358.31 618.27,-334.68"/>
<polygon fill="#bc8cff" stroke="#bc8cff" stroke-width="2" points="619.95,-337.34 626.26,-330.19 616.87,-331.85 619.95,-337.34"/>
<text text-anchor="middle" x="651" y="-381.8" font-family="Helvetica,sans-Serif" font-size="14.00" fill="#adbac7"> &#160;post&#45;turn hook</text>
<text text-anchor="middle" x="651" y="-366.8" font-family="Helvetica,sans-Serif" font-size="14.00" fill="#adbac7"> &#160;(interactive) /</text>
<text text-anchor="middle" x="651" y="-351.8" font-family="Helvetica,sans-Serif" font-size="14.00" fill="#adbac7"> &#160;loop driver (&#45;q)</text>
</g>
<!-- conv_loop -->
<g id="node3" class="node">
<title>conv_loop</title>
<path fill="#173a24" stroke="#3fb950" stroke-width="2" d="M534,-193C534,-193 316,-193 316,-193 310,-193 304,-187 304,-181 304,-181 304,-134 304,-134 304,-128 310,-122 316,-122 316,-122 534,-122 534,-122 540,-122 546,-128 546,-134 546,-134 546,-181 546,-181 546,-187 540,-193 534,-193"/>
<text text-anchor="middle" x="425" y="-168.8" font-family="Helvetica,sans-Serif" font-size="14.00" fill="#e6edf3">agent/conversation_loop.py</text>
<text text-anchor="middle" x="425" y="-153.8" font-family="Helvetica,sans-Serif" font-size="14.00" fill="#e6edf3">API&#45;call retry loop, streaming,</text>
<text text-anchor="middle" x="425" y="-138.8" font-family="Helvetica,sans-Serif" font-size="14.00" fill="#e6edf3">interrupt handling</text>
</g>
<!-- turn_facade&#45;&gt;conv_loop -->
<g id="edge2" class="edge">
<title>turn_facade&#45;&gt;conv_loop</title>
<path fill="none" stroke="#8b949e" stroke-width="1.6" d="M262.66,-258.95C276.46,-253.47 290.22,-247.45 303,-241 326.78,-228.99 351.42,-213.09 372.27,-198.45"/>
<polygon fill="#8b949e" stroke="#8b949e" stroke-width="1.6" points="374.26,-200.9 379.77,-193.12 370.61,-195.77 374.26,-200.9"/>
</g>
<!-- review -->
<g id="node8" class="node">
<title>review</title>
<path fill="#0d2e2e" stroke="#39c5cf" stroke-width="2" d="M274,-193C274,-193 12,-193 12,-193 6,-193 0,-187 0,-181 0,-181 0,-134 0,-134 0,-128 6,-122 12,-122 12,-122 274,-122 274,-122 280,-122 286,-128 286,-134 286,-134 286,-181 286,-181 286,-187 280,-193 274,-193"/>
<text text-anchor="middle" x="143" y="-168.8" font-family="Helvetica,sans-Serif" font-size="14.00" fill="#e6edf3">agent/background_review.py +</text>
<text text-anchor="middle" x="143" y="-153.8" font-family="Helvetica,sans-Serif" font-size="14.00" fill="#e6edf3">review_idle_queue.py</text>
<text text-anchor="middle" x="143" y="-138.8" font-family="Helvetica,sans-Serif" font-size="14.00" fill="#e6edf3">skill/memory nudges (forked agent)</text>
</g>
<!-- turn_facade&#45;&gt;review -->
<g id="edge6" class="edge">
<title>turn_facade&#45;&gt;review</title>
<path fill="none" stroke="#39c5cf" stroke-width="1.6" stroke-dasharray="5,2" d="M151.91,-258.73C150.38,-241.49 148.51,-220.49 146.88,-202.17"/>
<polygon fill="#39c5cf" stroke="#39c5cf" stroke-width="1.6" points="150.01,-201.83 146.08,-193.15 143.74,-202.39 150.01,-201.83"/>
<text text-anchor="middle" x="225" y="-229.8" font-family="Helvetica,sans-Serif" font-size="14.00" fill="#adbac7"> &#160;cancels prior review</text>
<text text-anchor="middle" x="225" y="-214.8" font-family="Helvetica,sans-Serif" font-size="14.00" fill="#adbac7"> &#160;fork, first action</text>
</g>
<!-- provider -->
<g id="node4" class="node">
<title>provider</title>
<path fill="#173a24" stroke="#3fb950" stroke-width="2" d="M271,-71C271,-71 15,-71 15,-71 9,-71 3,-65 3,-59 3,-59 3,-12 3,-12 3,-6 9,0 15,0 15,0 271,0 271,0 277,0 283,-6 283,-12 283,-12 283,-59 283,-59 283,-65 277,-71 271,-71"/>
<text text-anchor="middle" x="143" y="-46.8" font-family="Helvetica,sans-Serif" font-size="14.00" fill="#e6edf3">plugins/model&#45;providers/custom/</text>
<text text-anchor="middle" x="143" y="-31.8" font-family="Helvetica,sans-Serif" font-size="14.00" fill="#e6edf3">CustomProfile &#45;&#45; builds the Ollama</text>
<text text-anchor="middle" x="143" y="-16.8" font-family="Helvetica,sans-Serif" font-size="14.00" fill="#e6edf3">request (think, num_ctx, penalties)</text>
</g>
<!-- conv_loop&#45;&gt;provider -->
<g id="edge3" class="edge">
<title>conv_loop&#45;&gt;provider</title>
<path fill="none" stroke="#3fb950" stroke-width="1.6" d="M343.81,-121.95C309.02,-107.14 268.25,-89.8 232.58,-74.62"/>
<polygon fill="#3fb950" stroke="#3fb950" stroke-width="1.6" points="233.62,-71.64 224.1,-71.01 231.15,-77.43 233.62,-71.64"/>
<text text-anchor="middle" x="351.5" y="-92.8" font-family="Helvetica,sans-Serif" font-size="14.00" fill="#adbac7"> &#160;build request</text>
</g>
<!-- final_resp -->
<g id="node5" class="node">
<title>final_resp</title>
<path fill="#1f2937" stroke="#d29922" stroke-width="2" d="M537,-71C537,-71 313,-71 313,-71 307,-71 301,-65 301,-59 301,-59 301,-12 301,-12 301,-6 307,0 313,0 313,0 537,0 537,0 543,0 549,-6 549,-12 549,-12 549,-59 549,-59 549,-65 543,-71 537,-71"/>
<text text-anchor="middle" x="425" y="-46.8" font-family="Helvetica,sans-Serif" font-size="14.00" fill="#e6edf3">agent/turn_final_response.py</text>
<text text-anchor="middle" x="425" y="-31.8" font-family="Helvetica,sans-Serif" font-size="14.00" fill="#e6edf3">reasoning&#45;only&#45;stop detection,</text>
<text text-anchor="middle" x="425" y="-16.8" font-family="Helvetica,sans-Serif" font-size="14.00" fill="#e6edf3">empty&#45;response recovery</text>
</g>
<!-- conv_loop&#45;&gt;final_resp -->
<g id="edge4" class="edge">
<title>conv_loop&#45;&gt;final_resp</title>
<path fill="none" stroke="#d29922" stroke-width="1.6" d="M425,-121.79C425,-108.86 425,-94 425,-80.35"/>
<polygon fill="#d29922" stroke="#d29922" stroke-width="1.6" points="428.15,-80.13 425,-71.13 421.85,-80.13 428.15,-80.13"/>
<text text-anchor="middle" x="489" y="-92.8" font-family="Helvetica,sans-Serif" font-size="14.00" fill="#adbac7"> &#160;classify response</text>
</g>
<!-- tool_exec -->
<g id="node6" class="node">
<title>tool_exec</title>
<path fill="#3a2412" stroke="#f0883e" stroke-width="2" d="M801,-71C801,-71 579,-71 579,-71 573,-71 567,-65 567,-59 567,-59 567,-12 567,-12 567,-6 573,0 579,0 579,0 801,0 801,0 807,0 813,-6 813,-12 813,-12 813,-59 813,-59 813,-65 807,-71 801,-71"/>
<text text-anchor="middle" x="690" y="-46.8" font-family="Helvetica,sans-Serif" font-size="14.00" fill="#e6edf3">agent/tool_executor.py</text>
<text text-anchor="middle" x="690" y="-31.8" font-family="Helvetica,sans-Serif" font-size="14.00" fill="#e6edf3">dispatches to Docker sandbox</text>
<text text-anchor="middle" x="690" y="-16.8" font-family="Helvetica,sans-Serif" font-size="14.00" fill="#e6edf3">or in&#45;process tools</text>
</g>
<!-- conv_loop&#45;&gt;tool_exec -->
<g id="edge5" class="edge">
<title>conv_loop&#45;&gt;tool_exec</title>
<path fill="none" stroke="#f0883e" stroke-width="1.6" d="M515.28,-121.86C529.34,-116.11 543.63,-110.04 557,-104 576.62,-95.14 597.52,-84.92 616.8,-75.15"/>
<polygon fill="#f0883e" stroke="#f0883e" stroke-width="1.6" points="618.36,-77.89 624.96,-71 615.51,-72.28 618.36,-77.89"/>
<text text-anchor="middle" x="650.5" y="-92.8" font-family="Helvetica,sans-Serif" font-size="14.00" fill="#adbac7"> &#160;execute tool calls</text>
</g>
<!-- goals&#45;&gt;conv_loop -->
<g id="edge9" class="edge">
<title>goals&#45;&gt;conv_loop</title>
<path fill="none" stroke="#bc8cff" stroke-width="1.6" stroke-dasharray="5,2" d="M594.73,-258.98C585.56,-253.68 576.79,-247.7 569,-241 557.04,-230.7 562.05,-221.19 550,-211 544.44,-206.3 538.4,-201.97 532.07,-197.98"/>
<polygon fill="#bc8cff" stroke="#bc8cff" stroke-width="1.6" points="533.26,-195.03 523.92,-193.12 530.04,-200.44 533.26,-195.03"/>
<text text-anchor="middle" x="643" y="-229.8" font-family="Helvetica,sans-Serif" font-size="14.00" fill="#adbac7"> &#160;feeds continuation</text>
<text text-anchor="middle" x="643" y="-214.8" font-family="Helvetica,sans-Serif" font-size="14.00" fill="#adbac7"> &#160;prompt as next turn</text>
</g>
<!-- note -->
<g id="node10" class="node">
<title>note</title>
<polygon fill="#161b22" stroke="#8b949e" stroke-width="2" points="888.5,-193 575.5,-193 575.5,-122 894.5,-122 894.5,-187 888.5,-193"/>
<polyline fill="none" stroke="#8b949e" stroke-width="2" points="888.5,-193 888.5,-187 "/>
<polyline fill="none" stroke="#8b949e" stroke-width="2" points="894.5,-187 888.5,-187 "/>
<text text-anchor="middle" x="735" y="-168.8" font-family="Helvetica,sans-Serif" font-size="14.00" fill="#adbac7">Level 2b (next diagram) walks this same</text>
<text text-anchor="middle" x="735" y="-153.8" font-family="Helvetica,sans-Serif" font-size="14.00" fill="#adbac7">set of components as a real sequence,</text>
<text text-anchor="middle" x="735" y="-138.8" font-family="Helvetica,sans-Serif" font-size="14.00" fill="#adbac7">one turn start to finish.</text>
</g>
<!-- goals&#45;&gt;note -->
<g id="edge10" class="edge">
<title>goals&#45;&gt;note</title>
<path fill="none" stroke="#8b949e" stroke-width="1.6" stroke-dasharray="1,5" d="M712.36,-258.91C715.66,-253.12 718.7,-247.03 721,-241 726.8,-225.8 730.21,-208.11 732.2,-193.01"/>
</g>
<!-- interrupt -->
<g id="node9" class="node">
<title>interrupt</title>
<path fill="#161b22" stroke="#f85149" stroke-width="2" d="M520.5,-330C520.5,-330 307.5,-330 307.5,-330 301.5,-330 295.5,-324 295.5,-318 295.5,-318 295.5,-271 295.5,-271 295.5,-265 301.5,-259 307.5,-259 307.5,-259 520.5,-259 520.5,-259 526.5,-259 532.5,-265 532.5,-271 532.5,-271 532.5,-318 532.5,-318 532.5,-324 526.5,-330 520.5,-330"/>
<text text-anchor="middle" x="414" y="-305.8" font-family="Helvetica,sans-Serif" font-size="14.00" fill="#e6edf3">agent/interrupt_control.py</text>
<text text-anchor="middle" x="414" y="-290.8" font-family="Helvetica,sans-Serif" font-size="14.00" fill="#e6edf3">interrupt(), interrupt_issuer()</text>
<text text-anchor="middle" x="414" y="-275.8" font-family="Helvetica,sans-Serif" font-size="14.00" fill="#e6edf3">user vs. system&#45;issued</text>
</g>
<!-- interrupt&#45;&gt;conv_loop -->
<g id="edge7" class="edge">
<title>interrupt&#45;&gt;conv_loop</title>
<path fill="none" stroke="#f85149" stroke-width="1.6" stroke-dasharray="5,2" d="M413.07,-258.9C413.02,-244.11 413.42,-226.68 415,-211 415.29,-208.09 415.66,-205.1 416.09,-202.1"/>
<polygon fill="#f85149" stroke="#f85149" stroke-width="1.6" points="419.22,-202.49 417.52,-193.11 413,-201.51 419.22,-202.49"/>
<text text-anchor="middle" x="482.5" y="-222.3" font-family="Helvetica,sans-Serif" font-size="14.00" fill="#adbac7"> &#160;can abort mid&#45;call</text>
</g>
</g>
</svg>
