<?xml version="1.0" encoding="UTF-8" standalone="no"?>
<!DOCTYPE svg PUBLIC "-//W3C//DTD SVG 1.1//EN"
 "http://www.w3.org/Graphics/SVG/1.1/DTD/svg11.dtd">
<!-- Generated by graphviz version 2.43.0 (0)
 -->
<!-- Title: turn_lifecycle_sequence Pages: 1 -->
<svg width="1119pt" height="1195pt"
 viewBox="0.00 0.00 1119.40 1195.41" xmlns="http://www.w3.org/2000/svg" xmlns:xlink="http://www.w3.org/1999/xlink">
<g id="graph0" class="graph" transform="scale(1 1) rotate(0) translate(4 1191.41)">
<title>turn_lifecycle_sequence</title>
<polygon fill="#0d1117" stroke="transparent" points="-4,4 -4,-1191.41 1115.4,-1191.41 1115.4,4 -4,4"/>
<text text-anchor="middle" x="555.7" y="-1167.41" font-family="Helvetica,sans-Serif" font-size="20.00" fill="#e6edf3">Level 2b &#45;&#45; One turn, start to finish, in sequence</text>
<!-- s1 -->
<g id="node1" class="node">
<title>s1</title>
<path fill="#13294d" stroke="#58a6ff" stroke-width="2" d="M1030.5,-1157.41C1030.5,-1157.41 822.5,-1157.41 822.5,-1157.41 816.5,-1157.41 810.5,-1151.41 810.5,-1145.41 810.5,-1145.41 810.5,-1098.41 810.5,-1098.41 810.5,-1092.41 816.5,-1086.41 822.5,-1086.41 822.5,-1086.41 1030.5,-1086.41 1030.5,-1086.41 1036.5,-1086.41 1042.5,-1092.41 1042.5,-1098.41 1042.5,-1098.41 1042.5,-1145.41 1042.5,-1145.41 1042.5,-1151.41 1036.5,-1157.41 1030.5,-1157.41"/>
<text text-anchor="middle" x="926.5" y="-1133.21" font-family="Helvetica,sans-Serif" font-size="14.00" fill="#e6edf3">1. Input arrives</text>
<text text-anchor="middle" x="926.5" y="-1118.21" font-family="Helvetica,sans-Serif" font-size="14.00" fill="#e6edf3">(user message, or a queued</text>
<text text-anchor="middle" x="926.5" y="-1103.21" font-family="Helvetica,sans-Serif" font-size="14.00" fill="#e6edf3">goal&#45;continuation prompt)</text>
</g>
<!-- s2 -->
<g id="node2" class="node">
<title>s2</title>
<path fill="#0d3a6b" stroke="#58a6ff" stroke-width="2" d="M964.5,-1049.41C964.5,-1049.41 724.5,-1049.41 724.5,-1049.41 718.5,-1049.41 712.5,-1043.41 712.5,-1037.41 712.5,-1037.41 712.5,-990.41 712.5,-990.41 712.5,-984.41 718.5,-978.41 724.5,-978.41 724.5,-978.41 964.5,-978.41 964.5,-978.41 970.5,-978.41 976.5,-984.41 976.5,-990.41 976.5,-990.41 976.5,-1037.41 976.5,-1037.41 976.5,-1043.41 970.5,-1049.41 964.5,-1049.41"/>
<text text-anchor="middle" x="844.5" y="-1025.21" font-family="Helvetica,sans-Serif" font-size="14.00" fill="#e6edf3">2. run_conversation() starts</text>
<text text-anchor="middle" x="844.5" y="-1010.21" font-family="Helvetica,sans-Serif" font-size="14.00" fill="#e6edf3">cancels any in&#45;flight background</text>
<text text-anchor="middle" x="844.5" y="-995.21" font-family="Helvetica,sans-Serif" font-size="14.00" fill="#e6edf3">review fork for this session</text>
</g>
<!-- s1&#45;&gt;s2 -->
<g id="edge1" class="edge">
<title>s1&#45;&gt;s2</title>
<path fill="none" stroke="#8b949e" stroke-width="1.6" d="M899.65,-1086.2C892.43,-1076.87 884.54,-1066.67 877.05,-1056.98"/>
<polygon fill="#8b949e" stroke="#8b949e" stroke-width="1.6" points="879.41,-1054.89 871.41,-1049.7 874.43,-1058.74 879.41,-1054.89"/>
</g>
<!-- s3 -->
<g id="node3" class="node">
<title>s3</title>
<path fill="#173a24" stroke="#3fb950" stroke-width="2" d="M954,-941.41C954,-941.41 697,-941.41 697,-941.41 691,-941.41 685,-935.41 685,-929.41 685,-929.41 685,-882.41 685,-882.41 685,-876.41 691,-870.41 697,-870.41 697,-870.41 954,-870.41 954,-870.41 960,-870.41 966,-876.41 966,-882.41 966,-882.41 966,-929.41 966,-929.41 966,-935.41 960,-941.41 954,-941.41"/>
<text text-anchor="middle" x="825.5" y="-917.21" font-family="Helvetica,sans-Serif" font-size="14.00" fill="#e6edf3">3. CustomProfile builds the</text>
<text text-anchor="middle" x="825.5" y="-902.21" font-family="Helvetica,sans-Serif" font-size="14.00" fill="#e6edf3">Ollama request: messages, tools,</text>
<text text-anchor="middle" x="825.5" y="-887.21" font-family="Helvetica,sans-Serif" font-size="14.00" fill="#e6edf3">options{num_ctx}, think, penalties</text>
</g>
<!-- s2&#45;&gt;s3 -->
<g id="edge2" class="edge">
<title>s2&#45;&gt;s3</title>
<path fill="none" stroke="#8b949e" stroke-width="1.6" d="M838.28,-978.2C836.7,-969.42 834.99,-959.87 833.35,-950.7"/>
<polygon fill="#8b949e" stroke="#8b949e" stroke-width="1.6" points="836.42,-950 831.74,-941.7 830.22,-951.11 836.42,-950"/>
</g>
<!-- s4 -->
<g id="node4" class="node">
<title>s4</title>
<path fill="#173a24" stroke="#3fb950" stroke-width="2" d="M871.5,-833.41C871.5,-833.41 633.5,-833.41 633.5,-833.41 627.5,-833.41 621.5,-827.41 621.5,-821.41 621.5,-821.41 621.5,-774.41 621.5,-774.41 621.5,-768.41 627.5,-762.41 633.5,-762.41 633.5,-762.41 871.5,-762.41 871.5,-762.41 877.5,-762.41 883.5,-768.41 883.5,-774.41 883.5,-774.41 883.5,-821.41 883.5,-821.41 883.5,-827.41 877.5,-833.41 871.5,-833.41"/>
<text text-anchor="middle" x="752.5" y="-809.21" font-family="Helvetica,sans-Serif" font-size="14.00" fill="#e6edf3">4. API call to Ollama</text>
<text text-anchor="middle" x="752.5" y="-794.21" font-family="Helvetica,sans-Serif" font-size="14.00" fill="#e6edf3">(retried on stale&#45;stream timeout;</text>
<text text-anchor="middle" x="752.5" y="-779.21" font-family="Helvetica,sans-Serif" font-size="14.00" fill="#e6edf3">abortable by interrupt_control)</text>
</g>
<!-- s3&#45;&gt;s4 -->
<g id="edge3" class="edge">
<title>s3&#45;&gt;s4</title>
<path fill="none" stroke="#8b949e" stroke-width="1.6" d="M801.6,-870.2C795.23,-860.96 788.28,-850.87 781.67,-841.27"/>
<polygon fill="#8b949e" stroke="#8b949e" stroke-width="1.6" points="784.16,-839.32 776.46,-833.7 778.97,-842.89 784.16,-839.32"/>
</g>
<!-- s5 -->
<g id="node5" class="node">
<title>s5</title>
<path fill="#1f2937" stroke="#d29922" stroke-width="2" d="M630.85,-722.52C630.85,-722.52 368.15,-657.3 368.15,-657.3 362.32,-655.85 362.32,-652.96 368.15,-651.52 368.15,-651.52 630.85,-586.3 630.85,-586.3 636.68,-584.85 648.32,-584.85 654.15,-586.3 654.15,-586.3 916.85,-651.52 916.85,-651.52 922.68,-652.96 922.68,-655.85 916.85,-657.3 916.85,-657.3 654.15,-722.52 654.15,-722.52 648.32,-723.96 636.68,-723.96 630.85,-722.52"/>
<text text-anchor="middle" x="642.5" y="-665.71" font-family="Helvetica,sans-Serif" font-size="14.00" fill="#e6edf3">5. Response classified:</text>
<text text-anchor="middle" x="642.5" y="-650.71" font-family="Helvetica,sans-Serif" font-size="14.00" fill="#e6edf3">tool_calls? content? reasoning&#45;only?</text>
<text text-anchor="middle" x="642.5" y="-635.71" font-family="Helvetica,sans-Serif" font-size="14.00" fill="#e6edf3">interrupted? finish_reason?</text>
</g>
<!-- s4&#45;&gt;s5 -->
<g id="edge4" class="edge">
<title>s4&#45;&gt;s5</title>
<path fill="none" stroke="#8b949e" stroke-width="1.6" d="M725.59,-762.29C716,-749.96 704.86,-735.63 693.91,-721.54"/>
<polygon fill="#8b949e" stroke="#8b949e" stroke-width="1.6" points="696.22,-719.38 688.21,-714.21 691.24,-723.24 696.22,-719.38"/>
</g>
<!-- s6a -->
<g id="node6" class="node">
<title>s6a</title>
<path fill="#3a2412" stroke="#f0883e" stroke-width="2" d="M241,-517.41C241,-517.41 12,-517.41 12,-517.41 6,-517.41 0,-511.41 0,-505.41 0,-505.41 0,-458.41 0,-458.41 0,-452.41 6,-446.41 12,-446.41 12,-446.41 241,-446.41 241,-446.41 247,-446.41 253,-452.41 253,-458.41 253,-458.41 253,-505.41 253,-505.41 253,-511.41 247,-517.41 241,-517.41"/>
<text text-anchor="middle" x="126.5" y="-493.21" font-family="Helvetica,sans-Serif" font-size="14.00" fill="#e6edf3">5a. Tool calls present</text>
<text text-anchor="middle" x="126.5" y="-478.21" font-family="Helvetica,sans-Serif" font-size="14.00" fill="#e6edf3">&#45;&gt; tool_executor dispatches</text>
<text text-anchor="middle" x="126.5" y="-463.21" font-family="Helvetica,sans-Serif" font-size="14.00" fill="#e6edf3">(Docker sandbox or in&#45;process)</text>
</g>
<!-- s5&#45;&gt;s6a -->
<g id="edge5" class="edge">
<title>s5&#45;&gt;s6a</title>
<path fill="none" stroke="#f0883e" stroke-width="1.6" d="M521.52,-613.43C436.36,-585.3 323.15,-547.89 239.76,-520.33"/>
<polygon fill="#f0883e" stroke="#f0883e" stroke-width="1.6" points="240.55,-517.28 231.02,-517.44 238.57,-523.26 240.55,-517.28"/>
<text text-anchor="middle" x="382" y="-546.71" font-family="Helvetica,sans-Serif" font-size="14.00" fill="#adbac7">yes</text>
</g>
<!-- s6b -->
<g id="node7" class="node">
<title>s6b</title>
<path fill="#161b22" stroke="#f85149" stroke-width="2" d="M505.5,-517.41C505.5,-517.41 283.5,-517.41 283.5,-517.41 277.5,-517.41 271.5,-511.41 271.5,-505.41 271.5,-505.41 271.5,-458.41 271.5,-458.41 271.5,-452.41 277.5,-446.41 283.5,-446.41 283.5,-446.41 505.5,-446.41 505.5,-446.41 511.5,-446.41 517.5,-452.41 517.5,-458.41 517.5,-458.41 517.5,-505.41 517.5,-505.41 517.5,-511.41 511.5,-517.41 505.5,-517.41"/>
<text text-anchor="middle" x="394.5" y="-493.21" font-family="Helvetica,sans-Serif" font-size="14.00" fill="#e6edf3">5b. Reasoning&#45;only clean stop</text>
<text text-anchor="middle" x="394.5" y="-478.21" font-family="Helvetica,sans-Serif" font-size="14.00" fill="#e6edf3">&#45;&gt; synthesize final_response</text>
<text text-anchor="middle" x="394.5" y="-463.21" font-family="Helvetica,sans-Serif" font-size="14.00" fill="#e6edf3">from the reasoning text</text>
</g>
<!-- s5&#45;&gt;s6b -->
<g id="edge6" class="edge">
<title>s5&#45;&gt;s6b</title>
<path fill="none" stroke="#f85149" stroke-width="1.6" d="M567.42,-601.79C530.57,-576.46 486.86,-546.41 452.61,-522.86"/>
<polygon fill="#f85149" stroke="#f85149" stroke-width="1.6" points="454.21,-520.14 445.01,-517.63 450.64,-525.33 454.21,-520.14"/>
<text text-anchor="middle" x="546" y="-554.21" font-family="Helvetica,sans-Serif" font-size="14.00" fill="#adbac7">reasoning</text>
<text text-anchor="middle" x="546" y="-539.21" font-family="Helvetica,sans-Serif" font-size="14.00" fill="#adbac7">only</text>
</g>
<!-- s6c -->
<g id="node8" class="node">
<title>s6c</title>
<path fill="#161b22" stroke="#f85149" stroke-width="2" d="M737,-517.41C737,-517.41 548,-517.41 548,-517.41 542,-517.41 536,-511.41 536,-505.41 536,-505.41 536,-458.41 536,-458.41 536,-452.41 542,-446.41 548,-446.41 548,-446.41 737,-446.41 737,-446.41 743,-446.41 749,-452.41 749,-458.41 749,-458.41 749,-505.41 749,-505.41 749,-511.41 743,-517.41 737,-517.41"/>
<text text-anchor="middle" x="642.5" y="-493.21" font-family="Helvetica,sans-Serif" font-size="14.00" fill="#e6edf3">5c. Interrupted</text>
<text text-anchor="middle" x="642.5" y="-478.21" font-family="Helvetica,sans-Serif" font-size="14.00" fill="#e6edf3">&#45;&gt; mark turn_exit_reason</text>
<text text-anchor="middle" x="642.5" y="-463.21" font-family="Helvetica,sans-Serif" font-size="14.00" fill="#e6edf3">(user&#45; or system&#45;issued)</text>
</g>
<!-- s5&#45;&gt;s6c -->
<g id="edge7" class="edge">
<title>s5&#45;&gt;s6c</title>
<path fill="none" stroke="#f85149" stroke-width="1.6" d="M642.5,-583.08C642.5,-564.04 642.5,-543.97 642.5,-526.84"/>
<polygon fill="#f85149" stroke="#f85149" stroke-width="1.6" points="645.65,-526.65 642.5,-517.65 639.35,-526.65 645.65,-526.65"/>
<text text-anchor="middle" x="655" y="-546.71" font-family="Helvetica,sans-Serif" font-size="14.00" fill="#adbac7">yes</text>
</g>
<!-- s6d -->
<g id="node9" class="node">
<title>s6d</title>
<path fill="#12351f" stroke="#3fb950" stroke-width="2" d="M966.5,-509.91C966.5,-509.91 778.5,-509.91 778.5,-509.91 772.5,-509.91 766.5,-503.91 766.5,-497.91 766.5,-497.91 766.5,-465.91 766.5,-465.91 766.5,-459.91 772.5,-453.91 778.5,-453.91 778.5,-453.91 966.5,-453.91 966.5,-453.91 972.5,-453.91 978.5,-459.91 978.5,-465.91 978.5,-465.91 978.5,-497.91 978.5,-497.91 978.5,-503.91 972.5,-509.91 966.5,-509.91"/>
<text text-anchor="middle" x="872.5" y="-485.71" font-family="Helvetica,sans-Serif" font-size="14.00" fill="#e6edf3">5d. Normal text response</text>
<text text-anchor="middle" x="872.5" y="-470.71" font-family="Helvetica,sans-Serif" font-size="14.00" fill="#e6edf3">&#45;&gt; done</text>
</g>
<!-- s5&#45;&gt;s6d -->
<g id="edge8" class="edge">
<title>s5&#45;&gt;s6d</title>
<path fill="none" stroke="#3fb950" stroke-width="1.6" d="M713.38,-600.86C750.9,-573.05 795.79,-539.77 828.32,-515.66"/>
<polygon fill="#3fb950" stroke="#3fb950" stroke-width="1.6" points="830.54,-517.94 835.89,-510.05 826.78,-512.88 830.54,-517.94"/>
<text text-anchor="middle" x="806.5" y="-546.71" font-family="Helvetica,sans-Serif" font-size="14.00" fill="#adbac7">no</text>
</g>
<!-- s7 -->
<g id="node10" class="node">
<title>s7</title>
<path fill="#161b22" stroke="#adbac7" stroke-width="2" d="M733.5,-409.41C733.5,-409.41 551.5,-409.41 551.5,-409.41 545.5,-409.41 539.5,-403.41 539.5,-397.41 539.5,-397.41 539.5,-365.41 539.5,-365.41 539.5,-359.41 545.5,-353.41 551.5,-353.41 551.5,-353.41 733.5,-353.41 733.5,-353.41 739.5,-353.41 745.5,-359.41 745.5,-365.41 745.5,-365.41 745.5,-397.41 745.5,-397.41 745.5,-403.41 739.5,-409.41 733.5,-409.41"/>
<text text-anchor="middle" x="642.5" y="-385.21" font-family="Helvetica,sans-Serif" font-size="14.00" fill="#e6edf3">6. Turn ends, logged</text>
<text text-anchor="middle" x="642.5" y="-370.21" font-family="Helvetica,sans-Serif" font-size="14.00" fill="#e6edf3">(Turn ended: reason=...)</text>
</g>
<!-- s6a&#45;&gt;s7 -->
<g id="edge9" class="edge">
<title>s6a&#45;&gt;s7</title>
<path fill="none" stroke="#8b949e" stroke-width="1.6" d="M253.11,-448.43C256.27,-447.74 259.4,-447.06 262.5,-446.41 351.99,-427.56 454.25,-410.59 530.13,-398.87"/>
<polygon fill="#8b949e" stroke="#8b949e" stroke-width="1.6" points="530.84,-401.95 539.25,-397.47 529.88,-395.72 530.84,-401.95"/>
</g>
<!-- s6b&#45;&gt;s7 -->
<g id="edge10" class="edge">
<title>s6b&#45;&gt;s7</title>
<path fill="none" stroke="#8b949e" stroke-width="1.6" d="M481.59,-446.32C509.04,-435.42 539.15,-423.46 565.83,-412.86"/>
<polygon fill="#8b949e" stroke="#8b949e" stroke-width="1.6" points="567.16,-415.72 574.36,-409.47 564.83,-409.87 567.16,-415.72"/>
</g>
<!-- s6c&#45;&gt;s7 -->
<g id="edge11" class="edge">
<title>s6c&#45;&gt;s7</title>
<path fill="none" stroke="#8b949e" stroke-width="1.6" d="M642.5,-446.18C642.5,-437.3 642.5,-427.73 642.5,-418.77"/>
<polygon fill="#8b949e" stroke="#8b949e" stroke-width="1.6" points="645.65,-418.71 642.5,-409.71 639.35,-418.71 645.65,-418.71"/>
</g>
<!-- s6d&#45;&gt;s7 -->
<g id="edge12" class="edge">
<title>s6d&#45;&gt;s7</title>
<path fill="none" stroke="#8b949e" stroke-width="1.6" d="M809.35,-453.86C779.93,-441.27 744.79,-426.22 714.36,-413.18"/>
<polygon fill="#8b949e" stroke="#8b949e" stroke-width="1.6" points="715.42,-410.21 705.91,-409.57 712.94,-416 715.42,-410.21"/>
</g>
<!-- s8 -->
<g id="node11" class="node">
<title>s8</title>
<path fill="#0d2e2e" stroke="#39c5cf" stroke-width="2" d="M915,-316.41C915,-316.41 676,-316.41 676,-316.41 670,-316.41 664,-310.41 664,-304.41 664,-304.41 664,-257.41 664,-257.41 664,-251.41 670,-245.41 676,-245.41 676,-245.41 915,-245.41 915,-245.41 921,-245.41 927,-251.41 927,-257.41 927,-257.41 927,-304.41 927,-304.41 927,-310.41 921,-316.41 915,-316.41"/>
<text text-anchor="middle" x="795.5" y="-292.21" font-family="Helvetica,sans-Serif" font-size="14.00" fill="#e6edf3">7. Post&#45;turn hooks:</text>
<text text-anchor="middle" x="795.5" y="-277.21" font-family="Helvetica,sans-Serif" font-size="14.00" fill="#e6edf3">if nudge interval due, maybe</text>
<text text-anchor="middle" x="795.5" y="-262.21" font-family="Helvetica,sans-Serif" font-size="14.00" fill="#e6edf3">spawn a background review fork</text>
</g>
<!-- s7&#45;&gt;s8 -->
<g id="edge13" class="edge">
<title>s7&#45;&gt;s8</title>
<path fill="none" stroke="#8b949e" stroke-width="1.6" d="M684.71,-353.23C699.84,-343.49 717.22,-332.3 733.66,-321.72"/>
<polygon fill="#8b949e" stroke="#8b949e" stroke-width="1.6" points="735.78,-324.1 741.65,-316.58 732.37,-318.8 735.78,-324.1"/>
</g>
<!-- s9 -->
<g id="node12" class="node">
<title>s9</title>
<path fill="#2e1a4d" stroke="#bc8cff" stroke-width="3" d="M963,-208.41C963,-208.41 748,-208.41 748,-208.41 742,-208.41 736,-202.41 736,-196.41 736,-196.41 736,-149.41 736,-149.41 736,-143.41 742,-137.41 748,-137.41 748,-137.41 963,-137.41 963,-137.41 969,-137.41 975,-143.41 975,-149.41 975,-149.41 975,-196.41 975,-196.41 975,-202.41 969,-208.41 963,-208.41"/>
<text text-anchor="middle" x="855.5" y="-184.21" font-family="Helvetica,sans-Serif" font-size="14.00" fill="#e6edf3">8. If a goal is active:</text>
<text text-anchor="middle" x="855.5" y="-169.21" font-family="Helvetica,sans-Serif" font-size="14.00" fill="#e6edf3">evaluate_after_turn() &#45;&#45; judge</text>
<text text-anchor="middle" x="855.5" y="-154.21" font-family="Helvetica,sans-Serif" font-size="14.00" fill="#e6edf3">call to Anthropic, decide next</text>
</g>
<!-- s8&#45;&gt;s9 -->
<g id="edge14" class="edge">
<title>s8&#45;&gt;s9</title>
<path fill="none" stroke="#8b949e" stroke-width="1.6" d="M815.15,-245.2C820.33,-236.05 825.98,-226.07 831.36,-216.55"/>
<polygon fill="#8b949e" stroke="#8b949e" stroke-width="1.6" points="834.12,-218.08 835.81,-208.7 828.63,-214.98 834.12,-218.08"/>
</g>
<!-- s10 -->
<g id="node13" class="node">
<title>s10</title>
<ellipse fill="#2e1a4d" stroke="#bc8cff" stroke-width="2" cx="932.5" cy="-50.2" rx="178.8" ry="50.41"/>
<text text-anchor="middle" x="932.5" y="-61.5" font-family="Helvetica,sans-Serif" font-size="14.00" fill="#e6edf3">9. should_continue?</text>
<text text-anchor="middle" x="932.5" y="-46.5" font-family="Helvetica,sans-Serif" font-size="14.00" fill="#e6edf3">queue the continuation prompt</text>
<text text-anchor="middle" x="932.5" y="-31.5" font-family="Helvetica,sans-Serif" font-size="14.00" fill="#e6edf3">as the NEXT turn&#39;s input</text>
</g>
<!-- s9&#45;&gt;s10 -->
<g id="edge15" class="edge">
<title>s9&#45;&gt;s10</title>
<path fill="none" stroke="#8b949e" stroke-width="1.6" d="M877.57,-137.32C883.51,-127.99 890.11,-117.66 896.6,-107.48"/>
<polygon fill="#8b949e" stroke="#8b949e" stroke-width="1.6" points="899.35,-109.02 901.54,-99.74 894.04,-105.63 899.35,-109.02"/>
</g>
<!-- s10&#45;&gt;s1 -->
<g id="edge16" class="edge">
<title>s10&#45;&gt;s1</title>
<path fill="none" stroke="#8b949e" stroke-width="1.6" stroke-dasharray="5,2" d="M978.1,-98.97C993.33,-119.73 1006.5,-145.36 1006.5,-171.91 1006.5,-1014.91 1006.5,-1014.91 1006.5,-1014.91 1006.5,-1039.33 992.8,-1061.7 976.74,-1079.52"/>
<polygon fill="#8b949e" stroke="#8b949e" stroke-width="1.6" points="974.15,-1077.67 970.25,-1086.37 978.72,-1082.01 974.15,-1077.67"/>
<text text-anchor="middle" x="1026" y="-546.71" font-family="Helvetica,sans-Serif" font-size="14.00" fill="#adbac7"> &#160;loop</text>
</g>
</g>
</svg>
